<?xml version="1.0" encoding="UTF-8" standalone="no"?>
<svg
   viewBox="0 0 2325.4236 281.18646"
   version="1.1"
   id="svg52"
   width="2325.4236"
   height="281.18646"
   xmlns="http://www.w3.org/2000/svg"
   xmlns:svg="http://www.w3.org/2000/svg"
   xmlns:rdf="http://www.w3.org/1999/02/22-rdf-syntax-ns#"
   xmlns:cc="http://creativecommons.org/ns#"
   xmlns:dc="http://purl.org/dc/elements/1.1/">
  <defs
     id="defs56" />
  <title
     id="title46">horizontal_left_small_black</title>
  <text
     xml:space="preserve"
     style="font-style:normal;font-variant:normal;font-weight:normal;font-stretch:normal;font-size:232.223px;line-height:1.25;font-family:Gilroy;-inkscape-font-specification:Gilroy;letter-spacing:0px;word-spacing:0px;fill:#000000;fill-opacity:1;stroke:none;stroke-width:5.80558"
     x="1037.184"
     y="189.40575"
     id="text59" />
  <path
     style="font-style:normal;font-variant:normal;font-weight:normal;font-stretch:normal;font-size:40px;line-height:1.25;font-family:Gilroy;-inkscape-font-specification:Gilroy;letter-spacing:0px;word-spacing:0px;fill:#000000;fill-opacity:1;stroke:none;stroke-width:5.80558"
     d="m 1507.3394,150.38362 v 79.75858 h 8.3455 v -9.5361 h 0.2153 c 3.9014,6.2855 10.414,10.19377 19.0836,10.19377 14.5217,0 25.6829,-10.61915 25.6829,-26.65802 0,-15.60538 -10.7278,-27.41771 -25.6829,-27.41771 -8.0194,0 -14.7449,3.5681 -18.7547,9.85359 h -0.1025 v -36.19411 z m 280.4702,0 v 36.42091 h -0.1025 c -4.0096,-6.39389 -10.8373,-10.08039 -18.8567,-10.08039 -14.8469,0 -25.7963,11.81233 -25.7963,27.41771 0,16.03887 11.2683,26.65802 25.8984,26.65802 8.5611,0 15.2791,-4.01534 19.0719,-10.40923 h 0.1125 v 9.75156 h 8.4475 v -79.75858 z m 246.8844,2.06369 c -23.1912,0 -38.1445,16.46882 -38.1445,39.33504 0,23.84154 16.3658,38.90412 38.4734,38.90412 11.8125,0 22.7598,-3.68279 29.9122,-9.75155 v -30.45656 h -31.7493 v 8.57229 h 22.3152 v 16.57763 c -5.7436,4.33482 -12.7839,6.39521 -20.4781,6.39521 -17.2311,0 -28.6084,-12.79346 -28.6084,-30.24114 0,-18.42303 12.0303,-30.34319 28.1774,-30.34319 8.9949,0 16.5803,2.92938 22.7574,8.88977 l 6.6106,-5.85092 c -8.1277,-8.4529 -18.7539,-12.0307 -29.2659,-12.0307 z m 225.5443,2.71005 c -3.5763,0 -6.3953,2.81394 -6.3953,6.2818 0,3.46784 2.819,6.28181 6.3953,6.28181 3.576,0 6.3951,-2.81397 6.3951,-6.28181 0,-3.46786 -2.8191,-6.2818 -6.3951,-6.2818 z m -664.2165,21.56678 c -14.9552,0 -25.6829,11.81233 -25.6829,27.41771 0,16.03887 11.1611,26.65802 25.6829,26.65802 8.5613,0 15.0637,-3.90827 18.8567,-10.19377 h 0.1131 v 9.5361 h 8.4477 v -52.77174 h -8.7764 v 9.32067 l -0.2155,0.11333 c -3.7929,-6.39389 -10.6231,-10.08038 -18.4258,-10.08038 z m 58.1464,0 c -9.9701,0 -17.3374,6.06865 -17.3374,14.19645 0,9.64498 7.2567,13.11236 15.818,16.14672 7.6943,2.81765 12.5749,4.11645 12.5749,8.7764 0,4.00971 -3.6865,7.15491 -10.0804,7.15491 -7.3692,0 -12.0286,-2.38549 -16.1467,-6.39518 l -4.445,6.71267 c 5.0935,4.44321 11.8138,7.48376 20.5917,7.48376 12.6794,0 18.9589,-6.83338 18.9589,-15.06953 0.1084,-10.29523 -7.2524,-12.24282 -18.4146,-16.57764 -5.7436,-2.05905 -9.9783,-4.11403 -9.9783,-8.23211 0,-4.00974 4.012,-6.39521 8.13,-6.39521 4.5516,0 9.4295,1.40901 13.9811,5.63549 l 4.5469,-6.93948 c -5.852,-4.7683 -11.8053,-6.49725 -18.1991,-6.49725 z m 55.1076,0 c -15.0636,0 -26.0117,11.15841 -26.0117,27.08888 0,16.14723 11.0526,26.98685 26.658,26.98685 10.6203,0 17.2306,-4.01293 21.7822,-9.86495 l -6.1797,-5.20458 c -3.2512,4.0097 -8.2296,7.05285 -15.2736,7.05285 -9.9702,0 -16.9051,-6.51181 -18.0971,-16.37352 h 41.1719 c 0,-0.65024 0.2153,-2.16299 0.2153,-3.57181 0,-15.06352 -9.8521,-26.11372 -24.2654,-26.11372 z m 157.0792,0 c -16.3638,0 -27.3042,11.917 -27.3042,27.08888 0,15.17189 10.9404,26.98685 27.3042,26.98685 15.6054,0 27.2024,-10.94798 27.2024,-26.98685 0,-16.03885 -11.597,-27.08888 -27.2024,-27.08888 z m 68.4651,0 c -8.1279,0 -15.0676,3.78856 -19.1857,10.18242 h -0.1025 v -9.5361 h -8.7879 v 52.77174 h 8.7879 v -26.32918 c 0,-11.92077 6.4941,-19.0722 16.4643,-19.0722 7.6941,0 13.0056,4.22337 13.0056,16.57763 v 28.82375 h 8.7764 v -31.31833 c 0,-15.06353 -7.5798,-22.09973 -18.9587,-22.09973 z m 174.1897,0 c -8.1278,0 -15.0562,3.78856 -19.1743,10.18242 h -0.1124 v -9.5361 h -8.7765 v 52.77174 h 8.7765 v -26.32918 c 0,-11.92077 6.5055,-19.0722 16.4756,-19.0722 7.6942,0 13.0057,4.22337 13.0057,16.57763 v 28.82375 h 8.7764 v -31.31833 c 0,-15.06353 -7.5913,-22.09973 -18.9702,-22.09973 z m 58.328,0 c -16.364,0 -27.3044,11.917 -27.3044,27.08888 0,15.17189 10.9404,26.98685 27.3044,26.98685 15.6053,0 27.2022,-10.94798 27.2022,-26.98685 0,-16.03885 -11.5969,-27.08888 -27.2022,-27.08888 z m 55.3457,0 c -9.9702,0 -17.3375,6.06865 -17.3375,14.19645 0,9.64498 7.2681,13.11236 15.8294,16.14672 7.6942,2.81765 12.5634,4.11645 12.5634,8.7764 0,4.00971 -3.6864,7.15491 -10.0802,7.15491 -7.3694,0 -12.0287,-2.38549 -16.1467,-6.39518 l -4.4449,6.71267 c 5.0933,4.44321 11.8135,7.48376 20.5916,7.48376 12.6793,0 18.9701,-6.83338 18.9701,-15.06953 0.1091,-10.29523 -7.2638,-12.24282 -18.4259,-16.57764 -5.7434,-2.05905 -9.967,-4.11403 -9.967,-8.23211 0,-4.00974 4.0121,-6.39521 8.13,-6.39521 4.5518,0 9.4294,1.40901 13.9812,5.63549 l 4.5467,-6.93948 c -5.8519,-4.7683 -11.8164,-6.49725 -18.2102,-6.49725 z m 73.8736,0 c -9.9702,0 -17.3375,6.06865 -17.3375,14.19645 0,9.64498 7.2568,13.11236 15.818,16.14672 7.6944,2.81765 12.575,4.11645 12.575,8.7764 0,4.00971 -3.6866,7.15491 -10.0805,7.15491 -7.3691,0 -12.0286,-2.38549 -16.1466,-6.39518 l -4.4451,6.71267 c 5.0937,4.44321 11.8137,7.48376 20.5917,7.48376 12.6793,0 18.9701,-6.83338 18.9701,-15.06953 0.109,-10.29523 -7.2635,-12.24282 -18.4258,-16.57764 -5.7435,-2.05905 -9.967,-4.11403 -9.967,-8.23211 0,-4.00974 4.0007,-6.39521 8.1188,-6.39521 4.5515,0 9.4294,1.40901 13.981,5.63549 l 4.5582,-6.93948 c -5.852,-4.7683 -11.8165,-6.49725 -18.2103,-6.49725 z m -40.7639,0.64632 v 52.77174 h 8.7765 v -52.77174 z m -722.1133,7.37036 c 9.9701,0 18.097,7.69701 18.097,19.40103 0,10.62034 -7.3746,18.64134 -17.995,18.64134 -10.0785,0 -18.097,-7.47916 -18.097,-18.64134 0,-10.83705 7.2662,-19.40103 17.995,-19.40103 z m 63.6458,0 c 10.4035,0 17.6662,8.56398 17.6662,19.40103 0,11.16218 -7.9128,18.64134 -17.6662,18.64134 -10.837,0 -18.097,-8.021 -18.097,-18.64134 0,-11.70402 8.1269,-19.40103 18.097,-19.40103 z m 111.8367,0 c 8.6696,0 14.302,5.85561 15.6025,14.52526 h -32.3956 c 1.6255,-8.99476 8.3402,-14.52526 16.7931,-14.52526 z m 61.0945,0 c 10.6204,0 17.8817,8.56398 17.8817,19.40103 0,11.16218 -8.0251,18.64134 -17.9952,18.64134 -10.7286,0 -18.0968,-8.021 -18.0968,-18.64134 0,-11.70402 8.1319,-19.40103 18.2103,-19.40103 z m 96.0981,0 c 10.187,0 18.2105,7.80168 18.2105,19.0722 0,11.27054 -8.1318,18.97017 -18.2105,18.97017 -10.9453,0 -18.3124,-8.45821 -18.3124,-18.97017 0,-10.51194 7.2587,-19.0722 18.3124,-19.0722 z m 300.9828,0 c 10.1868,0 18.2103,7.80168 18.2103,19.0722 0,11.27054 -8.1319,18.97017 -18.2103,18.97017 -10.9455,0 -18.3125,-8.45821 -18.3125,-18.97017 0,-10.51194 7.2585,-19.0722 18.3125,-19.0722 z"
     id="text63" />
  <path
     style="font-style:normal;font-variant:normal;font-weight:normal;font-stretch:normal;font-size:40px;line-height:1.25;font-family:Gilroy;-inkscape-font-specification:Gilroy;letter-spacing:0px;word-spacing:0px;fill:#000000;fill-opacity:1;stroke:none;stroke-width:5.80558"
     d="m 1234.7723,57.392412 c -20.2034,0 -31.8173,12.303729 -31.8173,36.454909 v 22.995509 h -13.6975 v 16.24879 h 13.6975 v 96.84648 h 18.8114 v -96.84648 h 32.0441 v -16.24879 h -32.0441 V 95.706915 c 0,-14.862262 6.0301,-20.897788 15.319,-20.897788 6.2701,0 12.5423,2.316788 19.7413,6.032356 l 4.1841,-16.02202 c -6.2701,-3.947789 -14.8595,-7.427051 -26.2385,-7.427051 z m -262.55474,6.032355 c -28.33119,0 -50.39056,19.050891 -50.39056,43.666513 0,29.02787 24.85056,39.47426 49.23396,48.53097 22.06119,8.36001 36.91984,13.23351 36.91984,31.57912 0,16.0234 -13.70026,25.32001 -33.90366,25.32001 -16.02338,0 -33.67138,-7.43024 -45.51476,-22.29249 l -13.00588,15.55713 c 16.48783,17.64894 37.61468,25.54677 58.28251,25.54679 28.79569,0 55.27779,-16.25561 55.27779,-46.44458 0,-30.88565 -23.4591,-38.31951 -51.09369,-49.23398 -20.66783,-7.89558 -35.53053,-13.7016 -35.29833,-29.49277 0.23222,-15.791151 13.93385,-24.152086 29.49278,-24.152086 12.30781,0 26.47248,5.799228 39.70924,16.713704 l 12.3141,-16.022023 C 1008.682,70.161042 990.56316,63.424767 972.21756,63.424767 Z M 41.341742,65.057583 V 229.9381 H 61.547855 V 159.80634 H 133.53922 V 141.45981 H 61.547855 V 83.404096 H 146.53373 V 65.057583 Z M 459.95521,76.203824 441.15513,78.2902 v 38.55263 h -14.63862 v 16.24879 h 14.63862 v 63.16963 c 0,22.75786 9.28347,35.07154 29.25462,35.07156 13.46895,0 21.13642,-3.25793 27.40645,-6.97349 l -4.87582,-16.48693 c -5.57336,3.0189 -12.54184,5.80558 -19.2763,5.80558 -10.68224,0 -13.70887,-6.50496 -13.70887,-20.20612 v -60.38023 h 37.39607 V 116.84283 H 459.95521 Z M 212.2546,115.44814 c -32.04675,0 -55.03954,25.3073 -55.03954,58.74741 0,34.36897 23.92168,57.13724 55.03954,57.13726 18.3456,0 32.27307,-8.37002 40.4009,-21.83893 h 0.23814 v 20.44422 h 18.10838 V 116.84283 h -18.8114 v 19.968 l -0.46493,0.23809 c -8.12781,-13.70113 -22.75105,-21.60078 -39.47109,-21.60078 z m 152.69106,0 c -17.4167,0 -32.27942,8.12643 -41.1039,21.82759 h -0.23815 v -20.4329 H 304.7922 V 229.9381 h 18.81141 v -56.43425 c 0,-25.54452 13.93382,-40.86578 35.29834,-40.86578 16.48782,0 27.87128,9.05171 27.87128,35.52512 v 61.77491 h 18.8114 v -67.11558 c 0,-32.27899 -16.2556,-47.37438 -40.63899,-47.37438 z m 203.43314,0 c -35.06567,0 -58.52058,25.5445 -58.52058,58.05571 0,32.51122 23.45491,57.82894 58.52058,57.82896 33.44008,0 58.29385,-23.45995 58.29385,-57.82896 0,-34.36898 -24.85377,-58.05571 -58.29385,-58.05571 z m 143.46113,0 c -15.09448,0 -29.25736,8.12643 -37.8496,21.82759 h -0.23805 v -20.4329 H 654.94092 V 229.9381 h 18.81136 v -56.20747 c 0,-25.31229 13.93111,-41.09256 32.50896,-41.09256 16.95225,0 26.24978,13.23353 26.24978,37.38472 v 59.91531 h 18.80011 v -56.20747 c 0,-25.31229 14.16827,-41.09256 31.8172,-41.09256 17.1845,0 25.7736,13.23353 25.7736,37.38472 v 59.91531 h 18.8114 v -65.02921 c 0,-32.27899 -13.92611,-49.46075 -39.0062,-49.46075 -17.64892,0 -32.97651,8.82536 -41.56874,24.15208 h -0.23804 c -5.8058,-15.55894 -18.10816,-24.15208 -35.06042,-24.15208 z m 393.92847,0 c -32.0468,0 -55.0395,25.3073 -55.0395,58.74741 0,34.36897 23.9216,57.13724 55.0395,57.13726 18.3456,0 32.2731,-8.37002 40.401,-21.83893 h 0.2379 v 20.44422 h 18.1085 V 116.84283 h -18.8114 v 19.968 l -0.4651,0.23809 c -8.1275,-13.70113 -22.7508,-21.60078 -39.4709,-21.60078 z m 215.4638,0 c -32.2789,0 -55.7425,23.91896 -55.7425,58.05571 0,34.60122 23.6858,57.82894 57.1259,57.82896 22.7579,0 36.9293,-8.59588 46.6827,-21.13591 l -13.2326,-11.14625 c -6.9667,8.59225 -17.6526,15.0922 -32.7471,15.0922 -21.3644,0 -36.2249,-13.92792 -38.7794,-35.0602 h 88.2402 c 0,-1.39333 0.465,-4.64627 0.465,-7.66515 0,-32.27901 -21.1264,-55.96936 -52.0121,-55.96936 z M 215.03265,132.63807 c 22.29341,0 37.86095,18.33518 37.86095,41.55748 0,23.91894 -16.96089,39.9473 -37.86095,39.9473 -23.22226,0 -38.77939,-17.18947 -38.77939,-39.9473 0,-25.08009 17.4149,-41.55748 38.77939,-41.55748 z m 353.34615,0 c 21.82894,0 39.01756,16.7146 39.01756,40.86578 0,24.15119 -17.42086,40.639 -39.01756,40.639 -23.45454,0 -39.24427,-18.11336 -39.24427,-40.639 0,-22.52562 15.55752,-40.86578 39.24427,-40.86578 z m 540.1677,0 c 22.2934,0 37.8609,18.33518 37.8609,41.55748 0,23.91894 -16.9609,39.9473 -37.8609,39.9473 -23.2223,0 -38.7794,-17.18947 -38.7794,-39.9473 0,-25.08009 17.4149,-41.55748 38.7794,-41.55748 z m 212.4476,0 c 18.5779,0 30.652,12.53641 33.4387,31.11424 h -69.4287 c 3.4833,-19.2745 17.8766,-31.11424 35.99,-31.11424 z"
     id="text29" />
  <metadata
     id="metadata392">
    <rdf:RDF>
      <cc:Work
         rdf:about="">
        <dc:title>horizontal_left_small_black</dc:title>
      </cc:Work>
    </rdf:RDF>
  </metadata>
</svg>
