<?xml version="1.0" encoding="UTF-8" standalone="no"?>
<svg
   xmlns:dc="http://purl.org/dc/elements/1.1/"
   xmlns:cc="http://creativecommons.org/ns#"
   xmlns:rdf="http://www.w3.org/1999/02/22-rdf-syntax-ns#"
   xmlns:svg="http://www.w3.org/2000/svg"
   xmlns="http://www.w3.org/2000/svg"
   xmlns:sodipodi="http://sodipodi.sourceforge.net/DTD/sodipodi-0.dtd"
   xmlns:inkscape="http://www.inkscape.org/namespaces/inkscape"
   width="391.89279"
   height="29.960938"
   viewBox="0 0 391.89278 29.960936"
   version="1.1"
   id="svg13"
   sodipodi:docname="fantom-logo.svg"
   inkscape:version="0.92.4 (5da689c313, 2019-01-14)">
  <metadata
     id="metadata19">
    <rdf:RDF>
      <cc:Work
         rdf:about="">
        <dc:format>image/svg+xml</dc:format>
        <dc:type
           rdf:resource="http://purl.org/dc/dcmitype/StillImage" />
      </cc:Work>
    </rdf:RDF>
  </metadata>
  <defs
     id="defs17" />
  <sodipodi:namedview
     pagecolor="#ffffff"
     bordercolor="#666666"
     borderopacity="1"
     objecttolerance="10"
     gridtolerance="10"
     guidetolerance="10"
     inkscape:pageopacity="0"
     inkscape:pageshadow="2"
     inkscape:window-width="3840"
     inkscape:window-height="2071"
     id="namedview15"
     showgrid="false"
     inkscape:zoom="5.9508"
     inkscape:cx="222.22266"
     inkscape:cy="-7.0143957"
     inkscape:window-x="1910"
     inkscape:window-y="-10"
     inkscape:window-maximized="1"
     inkscape:current-layer="svg13"
     showguides="true" />
  <text
     xml:space="preserve"
     style="font-style:normal;font-variant:normal;font-weight:normal;font-stretch:normal;font-size:40px;line-height:1.25;font-family:Gilroy;-inkscape-font-specification:Gilroy;letter-spacing:0px;word-spacing:0px;fill:#000000;fill-opacity:1;stroke:none"
     x="171.53215"
     y="22.739071"
     id="text59"><tspan
       sodipodi:role="line"
       id="tspan57"
       x="171.53215"
       y="59.739071" /></text>
  <path
     style="font-style:normal;font-variant:normal;font-weight:normal;font-stretch:normal;font-size:40px;line-height:1.25;font-family:Gilroy;-inkscape-font-specification:Gilroy;letter-spacing:0px;word-spacing:0px;fill:#000000;fill-opacity:1;stroke:none"
     d="m 252.51562,16.017578 v 13.738281 h 1.4375 v -1.642578 h 0.0371 c 0.672,1.082667 1.79378,1.75586 3.28711,1.75586 2.50134,0 4.42383,-1.829131 4.42383,-4.591797 0,-2.688 -1.84783,-4.722657 -4.42383,-4.722656 -1.38133,0 -2.5398,0.614598 -3.23046,1.697265 h -0.0176 v -6.234375 z m 48.31055,0 v 6.273438 h -0.0176 c -0.69066,-1.101334 -1.86671,-1.736328 -3.24804,-1.736328 -2.55734,0 -4.44336,2.034656 -4.44336,4.722656 0,2.762666 1.94094,4.591797 4.46093,4.591797 1.47467,0 2.63183,-0.691636 3.28516,-1.792969 h 0.0195 v 1.679687 h 1.45508 V 16.017578 Z m 42.52539,0.355469 c -3.99466,0 -6.57031,2.836724 -6.57031,6.775391 0,4.106666 2.81895,6.701171 6.62695,6.701171 2.03467,0 3.92035,-0.634354 5.15235,-1.679687 v -5.246094 h -5.46875 v 1.476563 h 3.84375 v 2.855468 c -0.98934,0.746667 -2.20201,1.101563 -3.52735,1.101563 -2.968,0 -4.92773,-2.203651 -4.92773,-5.208984 0,-3.173334 2.07218,-5.226563 4.85351,-5.226563 1.54934,0 2.85593,0.504583 3.91993,1.53125 l 1.13867,-1.007813 c -1.4,-1.455999 -3.23035,-2.072265 -5.04102,-2.072265 z m 38.84961,0.466797 c -0.616,0 -1.10156,0.484698 -1.10156,1.082031 0,0.597333 0.48556,1.082031 1.10156,1.082031 0.616,0 1.10156,-0.484698 1.10156,-1.082031 0,-0.597333 -0.48556,-1.082031 -1.10156,-1.082031 z m -114.41015,3.714844 c -2.576,0 -4.42383,2.034656 -4.42383,4.722656 0,2.762666 1.92249,4.591797 4.42383,4.591797 1.47466,0 2.59471,-0.673193 3.24804,-1.75586 h 0.0195 v 1.642578 h 1.45508 v -9.089843 h -1.51172 v 1.605468 l -0.0371,0.01953 C 270.31149,21.18968 269.135,20.554686 267.791,20.554686 Z m 10.01562,0 c -1.71733,0 -2.98633,1.045312 -2.98633,2.445312 0,1.661333 1.24995,2.258583 2.72461,2.78125 1.32534,0.485333 2.16602,0.709052 2.16602,1.511719 0,0.690666 -0.635,1.232422 -1.73633,1.232422 -1.26933,0 -2.07192,-0.410896 -2.78125,-1.101563 l -0.76563,1.15625 c 0.87734,0.765333 2.03488,1.289063 3.54688,1.289063 2.184,0 3.26562,-1.177037 3.26562,-2.595703 0.0187,-1.773334 -1.2492,-2.108803 -3.17187,-2.855469 -0.98933,-0.354667 -1.71875,-0.708636 -1.71875,-1.417969 0,-0.690667 0.69106,-1.101563 1.40039,-1.101562 0.784,0 1.6242,0.242703 2.4082,0.970703 l 0.78321,-1.195313 c -1.008,-0.821333 -2.03344,-1.11914 -3.13477,-1.11914 z m 9.49219,0 c -2.59467,0 -4.48047,1.922015 -4.48047,4.666015 0,2.781333 1.9038,4.648438 4.5918,4.648438 1.82933,0 2.96795,-0.691219 3.75195,-1.699219 l -1.06445,-0.896484 c -0.56,0.690666 -1.41753,1.214843 -2.63086,1.214843 -1.71734,0 -2.91186,-1.121646 -3.11719,-2.820312 h 7.0918 c 0,-0.112 0.0371,-0.372568 0.0371,-0.615235 0,-2.594666 -1.69703,-4.498047 -4.17969,-4.498046 z m 27.05664,0 c -2.81867,0 -4.70313,2.052682 -4.70313,4.666015 0,2.613333 1.88446,4.648438 4.70313,4.648438 2.688,0 4.68555,-1.885771 4.68555,-4.648438 0,-2.762666 -1.99755,-4.666015 -4.68555,-4.666015 z m 11.79297,0 c -1.4,0 -2.59536,0.652572 -3.30469,1.753906 h -0.0176 v -1.642578 h -1.51367 v 9.089843 h 1.51367 v -4.535156 c 0,-2.053333 1.11861,-3.285156 2.83594,-3.285156 1.32533,0 2.24023,0.727469 2.24023,2.855469 v 4.964843 h 1.51172 v -5.394531 c 0,-2.594666 -1.30562,-3.80664 -3.26562,-3.80664 z m 30.0039,0 c -1.4,0 -2.5934,0.652572 -3.30273,1.753906 h -0.0195 v -1.642578 h -1.51172 v 9.089843 h 1.51172 v -4.535156 c 0,-2.053333 1.12056,-3.285156 2.83789,-3.285156 1.32533,0 2.24023,0.727469 2.24023,2.855469 v 4.964843 h 1.51172 v -5.394531 c 0,-2.594666 -1.30758,-3.80664 -3.26758,-3.80664 z m 10.04688,0 c -2.81867,0 -4.70313,2.052682 -4.70313,4.666015 0,2.613333 1.88446,4.648438 4.70313,4.648438 2.688,0 4.68555,-1.885771 4.68555,-4.648438 0,-2.762666 -1.99755,-4.666015 -4.68555,-4.666015 z m 9.5332,0 c -1.71733,0 -2.98633,1.045312 -2.98633,2.445312 0,1.661333 1.2519,2.258583 2.72657,2.78125 1.32533,0.485333 2.16406,0.709052 2.16406,1.511719 0,0.690666 -0.635,1.232422 -1.73633,1.232422 -1.26933,0 -2.07192,-0.410896 -2.78125,-1.101563 l -0.76562,1.15625 c 0.87733,0.765333 2.03487,1.289063 3.54687,1.289063 2.184,0 3.26758,-1.177037 3.26758,-2.595703 0.0187,-1.773334 -1.25116,-2.108803 -3.17383,-2.855469 -0.98933,-0.354667 -1.7168,-0.708636 -1.7168,-1.417969 0,-0.690667 0.69106,-1.101563 1.40039,-1.101562 0.784,0 1.62421,0.242703 2.40821,0.970703 l 0.7832,-1.195313 c -1.008,-0.821333 -2.03538,-1.11914 -3.13672,-1.11914 z m 12.72461,0 c -1.71733,0 -2.98633,1.045312 -2.98633,2.445312 0,1.661333 1.24995,2.258583 2.72461,2.78125 1.32534,0.485333 2.16602,0.709052 2.16602,1.511719 0,0.690666 -0.635,1.232422 -1.73633,1.232422 -1.26933,0 -2.07192,-0.410896 -2.78125,-1.101563 l -0.76563,1.15625 c 0.87734,0.765333 2.03488,1.289063 3.54688,1.289063 2.184,0 3.26758,-1.177037 3.26758,-2.595703 0.0187,-1.773334 -1.25116,-2.108803 -3.17383,-2.855469 -0.98933,-0.354667 -1.7168,-0.708636 -1.7168,-1.417969 0,-0.690667 0.68911,-1.101563 1.39844,-1.101562 0.784,0 1.6242,0.242703 2.4082,0.970703 l 0.78516,-1.195313 c -1.008,-0.821333 -2.03539,-1.11914 -3.13672,-1.11914 z m -7.02148,0.111328 v 9.089843 h 1.51172 v -9.089843 z m -124.38282,1.269531 c 1.71734,0 3.11719,1.325797 3.11719,3.341797 0,1.829333 -1.27027,3.210937 -3.09961,3.210937 -1.736,0 -3.11719,-1.288271 -3.11719,-3.210937 0,-1.866667 1.25161,-3.341797 3.09961,-3.341797 z m 10.96289,0 c 1.792,0 3.04297,1.47513 3.04297,3.341797 0,1.922666 -1.36297,3.210937 -3.04297,3.210937 -1.86666,0 -3.11718,-1.381604 -3.11718,-3.210937 0,-2.016 1.39985,-3.341797 3.11718,-3.341797 z m 19.26368,0 c 1.49333,0 2.4635,1.00862 2.6875,2.501953 h -5.58008 c 0.28,-1.549333 1.43658,-2.501953 2.89258,-2.501953 z m 10.52343,0 c 1.82934,0 3.08008,1.47513 3.08008,3.341797 0,1.922666 -1.38227,3.210937 -3.09961,3.210937 -1.848,0 -3.11718,-1.381604 -3.11718,-3.210937 0,-2.016 1.40071,-3.341797 3.13671,-3.341797 z m 16.55274,0 c 1.75467,0 3.13672,1.343823 3.13672,3.285156 0,1.941333 -1.40072,3.267578 -3.13672,3.267578 -1.88533,0 -3.1543,-1.456911 -3.1543,-3.267578 0,-1.810666 1.2503,-3.285156 3.1543,-3.285156 z m 51.84375,0 c 1.75467,0 3.13672,1.343823 3.13672,3.285156 0,1.941333 -1.40072,3.267578 -3.13672,3.267578 -1.88533,0 -3.1543,-1.456911 -3.1543,-3.267578 0,-1.810666 1.2503,-3.285156 3.1543,-3.285156 z"
     id="text63"
     inkscape:connector-curvature="0" />
  <path
     style="font-style:normal;font-variant:normal;font-weight:normal;font-stretch:normal;font-size:40px;line-height:1.25;font-family:Gilroy;-inkscape-font-specification:Gilroy;letter-spacing:0px;word-spacing:0px;fill:#000000;fill-opacity:1;stroke:none"
     d="m 205.56641,0 c -3.48,0 -5.48047,2.1192969 -5.48047,6.2792969 v 3.9609371 h -2.35938 v 2.798828 h 2.35938 v 16.681641 h 3.24023 V 13.039062 h 5.51953 v -2.798828 h -5.51953 V 6.5996094 c 0,-2.56 1.03867,-3.5996094 2.63867,-3.5996094 1.08,0 2.16039,0.3990625 3.40039,1.0390625 l 0.72071,-2.7597656 C 209.00594,0.59929688 207.52641,0 205.56641,0 Z M 160.3418,1.0390625 c -4.88,0 -8.67969,3.2814844 -8.67969,7.5214844 0,5.0000001 4.28047,6.7993751 8.48047,8.3593751 3.8,1.44 6.35937,2.279453 6.35937,5.439453 0,2.76 -2.35984,4.361328 -5.83984,4.361328 -2.76,0 -5.79984,-1.279844 -7.83984,-3.839844 l -2.24024,2.679688 c 2.84,3.04 6.47906,4.40039 10.03906,4.400391 4.96,0 9.52149,-2.8 9.52149,-8 0,-5.320001 -4.04078,-6.600469 -8.80078,-8.480469 -3.56,-1.36 -6.12008,-2.360078 -6.08008,-5.0800784 0.04,-2.72 2.40008,-4.1601562 5.08008,-4.1601562 2.12,0 4.55984,0.9989062 6.83984,2.8789062 l 2.12109,-2.7597656 c -2.68,-2.16 -5.80093,-3.3203125 -8.96093,-3.3203125 z M 0,1.3203125 V 29.720703 H 3.4804688 V 17.640625 H 15.880859 V 14.480469 H 3.4804688 V 4.4804688 H 18.119141 V 1.3203125 Z m 72.105469,1.9199219 -3.238281,0.359375 v 6.6406246 h -2.521485 v 2.798828 h 2.521485 v 10.88086 c 0,3.92 1.599062,6.041015 5.039062,6.041016 2.32,0 3.640703,-0.561172 4.720703,-1.201172 l -0.839844,-2.839844 c -0.96,0.52 -2.160312,1 -3.320312,1 -1.84,0 -2.361328,-1.120469 -2.361328,-3.480469 V 13.039062 h 6.441406 V 10.240234 H 72.105469 Z M 29.439453,10 c -5.52,0 -9.480469,4.359141 -9.480469,10.119141 0,5.92 4.120469,9.841796 9.480469,9.841797 3.16,0 5.558984,-1.441719 6.958985,-3.761719 h 0.04102 v 3.521484 h 3.119141 V 10.240234 h -3.240235 v 3.439454 l -0.08008,0.04101 C 34.838281,11.360703 32.319453,10 29.439453,10 Z m 26.300781,0 c -3,0 -5.560078,1.399766 -7.080078,3.759766 h -0.04102 v -3.519532 h -3.240235 v 19.480469 h 3.240235 V 20 c 0,-4.4 2.400078,-7.039062 6.080078,-7.039062 2.84,0 4.800781,1.55914 4.800781,6.11914 v 10.640625 h 3.240234 V 18.160156 c 0,-5.56 -2.8,-8.160156 -7,-8.160156 z m 35.041016,0 c -6.04,0 -10.080078,4.4 -10.080078,10 0,5.6 4.040078,9.960937 10.080078,9.960938 5.76,0 10.04102,-4.040938 10.04102,-9.960938 0,-5.92 -4.28102,-10 -10.04102,-10 z m 24.71094,0 c -2.6,0 -5.03953,1.399766 -6.51953,3.759766 h -0.041 v -3.519532 h -3.24023 v 19.480469 h 3.24023 v -9.681641 c 0,-4.36 2.39961,-7.078124 5.59961,-7.078124 2.92,0 4.52148,2.279453 4.52148,6.439453 v 10.320312 h 3.23829 v -9.681641 c 0,-4.36 2.44046,-7.078124 5.48046,-7.078124 2.96,0 4.43946,2.279453 4.43946,6.439453 v 10.320312 h 3.24023 V 18.519531 c 0,-5.56 -2.39875,-8.519531 -6.71875,-8.519531 -3.04,0 -5.68015,1.520156 -7.16015,4.160156 h -0.041 C 120.53125,11.480156 118.41219,10 115.49219,10 Z m 67.85351,0 c -5.52,0 -9.48047,4.359141 -9.48047,10.119141 0,5.92 4.12047,9.841796 9.48047,9.841797 3.16,0 5.55899,-1.441719 6.95899,-3.761719 h 0.041 v 3.521484 h 3.11914 V 10.240234 h -3.24023 v 3.439454 l -0.0801,0.04101 C 188.74453,11.360703 186.2257,10 183.3457,10 Z m 37.11328,0 c -5.56,0 -9.60156,4.12 -9.60156,10 0,5.96 4.07985,9.960937 9.83985,9.960938 3.92,0 6.36101,-1.480625 8.04101,-3.640626 l -2.2793,-1.919921 c -1.2,1.48 -3.04062,2.599609 -5.64062,2.599609 -3.68,0 -6.23969,-2.399063 -6.67969,-6.039062 h 15.19922 c 0,-0.240001 0.0801,-0.800313 0.0801,-1.320313 C 229.41799,14.080625 225.779,10 220.459,10 Z M 29.917969,12.960938 c 3.84,0 6.521484,3.158203 6.521484,7.158203 0,4.12 -2.921484,6.880859 -6.521484,6.880859 -4,0 -6.679688,-2.960859 -6.679688,-6.880859 0,-4.32 2.999688,-7.158204 6.679688,-7.158203 z m 60.863281,0 c 3.76,0 6.720703,2.879062 6.720703,7.039062 0,4.16 -3.000703,7 -6.720703,7 -4.04,0 -6.759766,-3.12 -6.759766,-7 0,-3.88 2.679766,-7.039062 6.759766,-7.039062 z m 93.04297,0 c 3.84,0 6.52148,3.158203 6.52148,7.158203 0,4.12 -2.92148,6.880859 -6.52148,6.880859 -4,0 -6.67969,-2.960859 -6.67969,-6.880859 0,-4.32 2.99969,-7.158204 6.67969,-7.158203 z m 36.59375,0 c 3.2,0 5.27976,2.159374 5.75976,5.359374 h -11.95898 c 0.6,-3.319999 3.07922,-5.359374 6.19922,-5.359374 z"
     id="text29"
     inkscape:connector-curvature="0" />
</svg>
